<svg width="37" height="38" viewBox="0 0 37 38" fill="none" xmlns="http://www.w3.org/2000/svg">
<g clip-path="url(#clip0)">
<path d="M18.2851 0C8.19141 0.011659 0.0113092 8.44475 0 18.8507V37.073C0 37.323 0.143448 37.5491 0.365762 37.6492C0.442546 37.6838 0.525579 37.7016 0.609505 37.7013H35.9608C36.0447 37.7016 36.1277 37.6838 36.2045 37.6492C36.4268 37.5491 36.5703 37.323 36.5703 37.073V18.8507C36.559 8.44475 28.3789 0.011659 18.2851 0ZM27.22 36.4446L24.0853 28.9043H26.5774L34.4138 36.4446H27.22ZM2.15648 36.4446L9.99582 28.9043H12.488L9.3503 36.4446H2.15648ZM7.27626 20.1074H7.31406V20.0887L9.14257 19.2087V20.987L1.21901 25.3435V23.0184L7.27626 20.1074ZM1.21901 26.768L9.14257 22.4109V28.0032L1.21901 35.6279V26.768ZM10.3616 27.6476V15.7089C10.3616 11.1975 13.9091 7.54026 18.2851 7.54026C22.6612 7.54026 26.2087 11.1975 26.2087 15.7089V27.6476H10.3616ZM21.3327 6.28355C21.3327 5.93655 21.6056 5.6552 21.9422 5.6552C22.2788 5.6552 22.5517 5.93655 22.5517 6.28355C22.5517 6.63056 22.2788 6.91191 21.9422 6.91191C21.6056 6.91191 21.3327 6.63056 21.3327 6.28355ZM35.3513 23.0212V25.3459L27.4277 20.987V19.2087L35.3513 23.0212ZM27.4277 28.0026V22.4103L35.3513 26.768V35.6279L27.4277 28.0026ZM28.6467 5.6552C28.6467 6.0022 28.3738 6.28355 28.0372 6.28355C27.7006 6.28355 27.4277 6.0022 27.4277 5.6552C27.4277 5.30819 27.7006 5.02684 28.0372 5.02684C28.3738 5.02684 28.6467 5.30819 28.6467 5.6552ZM18.2851 1.25671C21.4773 1.25364 24.6052 2.17961 27.3096 3.92783C26.4971 4.28619 26.0495 5.1916 26.2459 6.07983C26.442 6.96775 27.2262 7.58414 28.1086 7.54425C28.9914 7.50437 29.7202 6.81956 29.8401 5.91722C33.3537 9.24185 35.3531 13.934 35.3513 18.8507V21.6344L33.6448 20.8118L34.1201 18.3481C34.1805 18.0272 33.9924 17.7124 33.6873 17.6234L34.1141 15.8641L32.9314 15.5601L32.5049 17.3194L31.2312 16.9908L30.9359 18.2097L32.8097 18.693L32.5049 20.2706L29.8657 18.9952V16.162L31.2773 15.6764C31.3264 15.654 31.3722 15.6245 31.4133 15.5889L31.4231 15.6033L33.2516 14.3466L32.5749 13.301L31.2261 14.2279L29.7437 12.19L28.7687 12.9442L30.0895 14.7602L29.0637 15.1131C28.8149 15.1987 28.647 15.4386 28.6467 15.7089V18.4107L27.4277 17.8247V15.7089C27.4241 12.4563 25.7929 9.43576 23.113 7.71944C23.7606 7.15797 23.9489 6.21145 23.568 5.43276C23.1874 4.65406 22.3374 4.24692 21.5145 4.44973C20.6916 4.65222 20.1119 5.41128 20.1137 6.28355C20.1169 6.34829 20.1232 6.41303 20.1324 6.47715C17.4405 5.90587 14.6421 6.61307 12.5112 8.40272C10.3806 10.1927 9.14376 12.8755 9.14257 15.7089V17.8219L7.31406 18.7019V17.0285L7.89559 14.0306L9.08156 11.5911L7.99052 11.0297L7.24144 12.5742L6.60515 11.5899L5.5909 12.2876L6.66973 13.9557L6.37718 15.4637L5.36352 14.0751L4.38855 14.8292L6.09505 17.1748V19.2906L4.06535 20.2651L3.79065 18.8507H4.87604V17.5939H3.89303L4.23499 16.5357C4.27754 16.4072 4.27754 16.2673 4.23499 16.1387L3.62548 14.2537L2.46718 14.6507L3.01449 16.3372L2.46986 18.0238C2.43564 18.1272 2.42879 18.2383 2.45022 18.3453L2.9255 20.8118L1.21901 21.6344V18.8507C1.22972 9.13846 8.8643 1.26776 18.2851 1.25671ZM10.6767 36.4446L13.8109 28.9043H22.7594L25.8935 36.4446H10.6767Z" fill="white"/>
<path d="M8.5331 10.0537C9.54289 10.0537 10.3616 9.20964 10.3616 8.16862C10.3616 7.1276 9.54289 6.28355 8.5331 6.28355C7.52331 6.28355 6.70459 7.1276 6.70459 8.16862C6.70459 9.20964 7.52331 10.0537 8.5331 10.0537ZM8.5331 7.54026C8.8697 7.54026 9.14261 7.82161 9.14261 8.16862C9.14261 8.51563 8.8697 8.79697 8.5331 8.79697C8.19651 8.79697 7.9236 8.51563 7.9236 8.16862C7.9236 7.82161 8.19651 7.54026 8.5331 7.54026Z" fill="white"/>
<path d="M11.5806 3.77013H12.7996V5.02684H11.5806V3.77013Z" fill="white"/>
<path d="M14.0186 4.39849H15.2376V5.6552H14.0186V4.39849Z" fill="white"/>
<path d="M19.5042 2.51342H20.7232V3.77013H19.5042V2.51342Z" fill="white"/>
<path d="M29.2561 9.42533H30.4751V10.682H29.2561V9.42533Z" fill="white"/>
<path d="M13.4089 33.9312H14.6279V35.1879H13.4089V33.9312Z" fill="white"/>
<path d="M15.8472 32.6745H17.0662V33.9312H15.8472V32.6745Z" fill="white"/>
</g>
<defs>
<clipPath id="clip0">
<rect width="36.5703" height="37.7013" fill="white"/>
</clipPath>
</defs>
</svg>
